/* XPM */
static char * close_xpm[] = {
(char*)"32 32 7 1",
(char*)". 	c None",
(char*)"+	c #505000",
(char*)"@	c #080000",
(char*)"#	c #00B8B8",
(char*)"$	c #006060",
(char*)"%	c #00C0C0",
(char*)"&	c #0000B0",
(char*)"................................",
(char*)"................................",
(char*)"..+++++++++++++++++++++++++++...",
(char*)"..+@@@@@@@@@@@@@@@@@@@@@#$$$+...",
(char*)"..+@@@@@@@@@@@@@@@@@@@###$$$+...",
(char*)"..+@@@@@@@@@@@@@@@@@#####$$$+...",
(char*)"..+@@@@@@@@@@@@@@@#######$$$+...",
(char*)"..+@@@@@@@@@@@@@#########$$$+...",
(char*)"..+@@@@@@@@@@@###########$$$+...",
(char*)"..+@@@@@@@@@@@###########$$$+...",
(char*)"..+@@@@@@@@@@@###########$$$+...",
(char*)"..+@@@@@@@@@@@###########$$$+...",
(char*)"..+@@@@@@@@@@@###########$$$+...",
(char*)"..+@@@@@@@@@@@###########$$$+...",
(char*)"..+@@@@@@@@@@@####%######$$$+...",
(char*)"..+@@@@@@@@@@@#%&&%######$$$+...",
(char*)"..+@@@@@@@@@@@%%&&%######$$$+...",
(char*)"..+@@@@@@@@@@@%%&&%%#####$$$+...",
(char*)"..+@@@@@@@@@@@##&&%%#####$$$+...",
(char*)"..+@@@@@@@@@@@###########$$$+...",
(char*)"..+@@@@@@@@@@@###########$$$+...",
(char*)"..+@@@@@@@@@@@###########$$$+...",
(char*)"..+@@@@@@@@@@@###########$$$+...",
(char*)"..+@@@@@@@@@@@###########$$$+...",
(char*)"..+@@@@@@@@@@@###########$$$+...",
(char*)"..+@@@@@@@@@@@###########$$$+...",
(char*)"..+@@@@@@@@@@@#########$$$$$+...",
(char*)"..+@@@@@@@@@@@#######$$$$$$$+...",
(char*)"..+@@@@@@@@@@@######$$$$$$$$+...",
(char*)"..++++++++++++###++++++++++++...",
(char*)"..............##................",
(char*)"..............#................."};
