/* XPM */
static char * config_xpm[] = {
(char*)"32 32 5 1",
(char*)".	c None",
(char*)"+	c #808080",
(char*)"@	c #FFFFFF",
(char*)"#	c #C0C0C0",
(char*)"$	c #808000",
(char*)"............................+...",
(char*)"...............@@@@@@@@@@#$.+...",
(char*)"..............@@@########$$.+...",
(char*)".............@@@#$$$$$$$$$.++...",
(char*)"............@@@#$$$$$$$$$.++....",
(char*)"...........@@@#$$$$$.....++.....",
(char*)"...........@@#$$$$$.++++++...@@.",
(char*)"...........@@#$$$$.++++++...@#$.",
(char*)"...........@@#$$$.+++......@$$$.",
(char*)"...........@@#$$$.++.......#$$$.",
(char*)"...........@@#$$$.++.......#$$$.",
(char*)"...........@@#$$$.++.......#$$$.",
(char*)"...........@@#$$$.++.......#$$$.",
(char*)"...........@@#$$$.++......##$$$.",
(char*)"...........@@#$$$.++.....#@#$$$.",
(char*)"...........@@@$$$$......#@@#$$$.",
(char*)"..........@@@@@@@@@@@@@@@@#$$$$.",
(char*)".........@@@@#############$$$$.+",
(char*)"........@@@@###$$$$$$$$$$$$$$.++",
(char*)".......@@@@###$$$$$$$$$$$$$$.++.",
(char*)"......@@@@###$$$$$$$$$$$$$$.++..",
(char*)".....@@@@###$$$$...........++...",
(char*)"....@@@@###$$$$..+++++++++++....",
(char*)"...@@@@###$$$$..+++++++++++.....",
(char*)"..@@@@###$$$$..++...............",
(char*)".@@@@###$$$$..++................",
(char*)".@@@###$$$$..++.................",
(char*)".@@###$$$$..++..................",
(char*)".@###$$$$..++...................",
(char*)".###$$$$..++....................",
(char*)".##$$$$..++.....................",
(char*)"........++......................"};
