/* XPM */
static char * match_xpm[] = {
(char*)"32 32 7 1",
(char*)".	c None",
(char*)"+	c #FF0000",
(char*)"@	c #008000",
(char*)"#	c #000000",
(char*)"$	c #F8F8F8",
(char*)"%	c #808080",
(char*)"&	c #C0C0C0",
(char*)"................................",
(char*)"..........+++...................",
(char*)"..........+++...................",
(char*)"..........+++...................",
(char*)"................................",
(char*)"..@.......####..................",
(char*)".@@@....##$$$$##................",
(char*)"@@@@@..#$$$######...............",
(char*)".@@@..#$$$##%%%###..............",
(char*)"..@..##$$#%%%%%%%##.....###.....",
(char*)".....#$$#%%%%%%%%%#...####%##...",
(char*)".....#$$#%%%%####%#.##$$$$#%%#..",
(char*)"....#$$$#%%%##&&##..#$$$$$$#%#..",
(char*)"....#$$#%%%%#$##&&##$$$$$$$#%%#.",
(char*)"....#$$#%%%%#$$$##&#$$$$$$$$#%#.",
(char*)"....#$$#%%%%#$$$$$##$$$$$$$$$#%#",
(char*)"....#$$#%%%%#$$$$$$$$$$$$$$$$#%#",
(char*)"....#$$#%%%%#$$$$$$$$$$$$$$$$#%#",
(char*)"....#$$#%%%%#$$$$$$$$$$$##$$$#%#",
(char*)".....#$$#%%%#$$$$$$$$$$##$#$$#%#",
(char*)".....#$$#%%%##$$$$$$$$$##$#$$#%#",
(char*)".....##$#%%%%%##$$$$$$$####$$#%#",
(char*)"......#$$#%%%%%%##$$$$$$##$$$#%#",
(char*)".......#$$##%%%##.#$$$$$$$$$$#%#",
(char*)"........##&#####..#$$$$$$$$$$#%#",
(char*)"..........####....#$$$$$$$$$$#%#",
(char*)"...................#$$$$$$$$$#%#",
(char*)"...................#$$$$$$$$###.",
(char*)"....................#$$$$$$$#%#.",
(char*)"....................#$$$$$$###..",
(char*)".....................#$$$$###...",
(char*)"......................######...."};
