/* XPM */
static char * register_xpm[] = {
(char*)"32 32 8 1",
(char*)". 	c None",
(char*)"+	c #000000",
(char*)"@	c #800000",
(char*)"#	c #FF0000",
(char*)"$	c #F8F8F8",
(char*)"%	c #D0D000",
(char*)"&	c #000080",
(char*)"*	c #F8F800",
(char*)"....................+++++++.....",
(char*)"..................++@#@#@#@++...",
(char*)".................+#@#@#@#@#@#+..",
(char*)"................+#+++++++#@#@#+.",
(char*)"................++$$$$$$$++@#@+.",
(char*)"................+$$$$$$$$$$+@#+.",
(char*)"...............+$$$$$$$$$$$+#@+.",
(char*)"..............+$$$$$$$$$$$+#@+..",
(char*)".............+$$$$$$$$$$$$+++...",
(char*)"............+$$$$$$$$$$$$$+.....",
(char*)"...........+$$$$$$$$$$$$$$+.....",
(char*)"..........+$+$$$$$$$$$$$$+......",
(char*)"........++$+$$$$$$$$$$$$$+......",
(char*)".......+.++$$$$$$$$$$$$$$+......",
(char*)"......+$+$+$$$$+++$$$$$$+.......",
(char*)".....+$$++$$$$+%%%+$$$$$++......",
(char*)"....+.++$$$$$+%%%%%+$$$$+%+.....",
(char*)"...+.+.++$$$+%%%%%%+$$$$+%%+....",
(char*)"..+.+.+$+$$$+%%%%%%+$$$+%+++....",
(char*)"..++..++$$$+%%%%%%%+$$$++%%+....",
(char*)"....++$+$$$+%%%%%%&+$$$+%%%+....",
(char*)"...+$++$$$++%%%%&&#+$$++%%%+....",
(char*)"..+*+$++$+**+%++&##+$+$+%%+.....",
(char*)".+**++$+$+**++**&##+$+$+%%+.....",
(char*)".+***++$+*++****&###+++&%+......",
(char*)".+*+**++++*******&#####&+.......",
(char*)"..+++************&#&&&&.........",
(char*)"..+++********+++++&.............",
(char*)"++...++++++++...................",
(char*)"................................",
(char*)"................................",
(char*)"................................"};
